<?xml version="1.0" encoding="utf-8"?>
<!-- Generator: Adobe Illustrator 27.5.0, SVG Export Plug-In . SVG Version: 6.00 Build 0)  -->
<svg version="1.1" id="_x31_" xmlns="http://www.w3.org/2000/svg" xmlns:xlink="http://www.w3.org/1999/xlink" x="0px" y="0px"
	 viewBox="0 0 450 450" style="enable-background:new 0 0 450 450;" xml:space="preserve">
<g>
	<g>
		<linearGradient id="SVGID_1_" gradientUnits="userSpaceOnUse" x1="96.7294" y1="79.6482" x2="351.0834" y2="417.1873">
			<stop  offset="0" style="stop-color:#006EC7"/>
			<stop  offset="1" style="stop-color:#54DAF8"/>
		</linearGradient>
		<circle style="fill-rule:evenodd;clip-rule:evenodd;fill:url(#SVGID_1_);" cx="223.896" cy="248.404" r="171.465"/>
		<g>
			<path style="fill:#FF6600;" d="M133.096,40.198l-6.818,3.039l10.26,36.05l1.13-0.503l3.837-1.707l-1.958-6.379l5.472-2.433
				l3.5,5.688l4.817-2.146l-15.667-24.468L133.096,40.198z M142.636,64.361l-4.436,1.973l-0.533-1.738L132.7,48.384l0.079-0.036
				l4.889,7.942L142.636,64.361z"/>
			<path style="fill:#FF6600;" d="M156.438,37.361l7.676,22.363c0.828,2.391,0.432,3.866-1.174,4.421
				c-0.841,0.288-1.512,0.187-2.022-0.295c-0.511-0.49-0.979-1.346-1.404-2.584l-7.682-22.313l-5.307,1.822l7.97,23.133
				c1.642,4.774,4.241,6.545,7.784,5.328c2.21-0.763,3.333-2.448,3.37-5.062l1.072,3.111l5.285-1.822l-10.303-29.909L156.438,37.361
				z"/>
			<path style="fill:#FF6600;" d="M189.544,48.888l-5.263,1.209l0.842,3.657c0.036,0.152,0.072,0.296,0.101,0.433
				c0.122,0.532,0.209,1.008,0.259,1.411c0.23,1.735-0.266,2.751-1.476,3.046c-0.892,0.209-1.577-0.007-2.045-0.648
				c-0.475-0.641-0.885-1.728-1.238-3.247L177.52,40.86c-0.338-1.461-0.425-2.592-0.252-3.384c0.173-0.785,0.655-1.274,1.447-1.454
				c0.792-0.187,1.418-0.08,1.865,0.324c0.439,0.403,0.886,1.541,1.317,3.42l0.821,3.571l5.263-1.21l-0.784-3.391
				c-0.663-2.88-1.735-4.947-3.211-6.214c-1.476-1.274-3.47-1.612-5.991-1.029c-2.52,0.576-4.263,1.634-5.22,3.168
				c-1.203,1.923-1.282,5.126-0.253,9.605l2.311,9.986c0.793,3.449,1.944,5.962,3.456,7.531c1.512,1.569,3.802,2.002,6.891,1.289
				c2.585-0.598,4.255-1.836,5.004-3.722c0.749-1.879,0.771-4.327,0.079-7.344L189.544,48.888z"/>
			<path style="fill:#FF6600;" d="M203.534,55.21c-0.41-0.166-0.663-0.619-0.756-1.354l-2.571-20.974l3.053-0.374l-0.49-4.017
				l-3.06,0.374l-0.749-6.113l-5.544,0.684l0.748,6.113l-2.556,0.31l0.497,4.018l2.556-0.31l2.693,21.932
				c0.223,1.843,0.713,3.096,1.476,3.758c0.763,0.662,2.117,0.879,4.075,0.641l3.766-0.468l-0.518-4.226
				C204.816,55.368,203.937,55.368,203.534,55.21z"/>
			
				<rect x="207.793" y="19.309" transform="matrix(0.9975 -0.0704 0.0704 0.9975 -1.0075 14.882)" style="fill:#FF6600;" width="5.63" height="4.85"/>
			
				<rect x="209.33" y="27.012" transform="matrix(0.9976 -0.0697 0.0697 0.9976 -2.468 14.8809)" style="fill:#FF6600;" width="5.587" height="31.627"/>
			<path style="fill:#FF6600;" d="M229.627,26.741l-0.284-0.001c-5.084,0.03-7.682,3.363-7.803,10.002l-0.208,11.829
				c-0.058,3.37,0.475,5.962,1.598,7.769c1.123,1.8,3.168,2.729,6.149,2.786l0.264,0.002c1.39-0.005,2.578-0.216,3.567-0.636
				c2.736-1.159,4.147-4.377,4.241-9.648l0.202-11.829C237.475,30.255,234.897,26.835,229.627,26.741z M231.499,50.076
				c-0.029,1.52-0.209,2.657-0.54,3.42c-0.301,0.701-0.843,1.075-1.615,1.113c-0.061,0.003-0.121,0.004-0.185,0.003
				c-0.461-0.007-0.85-0.122-1.152-0.338c-0.749-0.533-1.109-1.958-1.066-4.277l0.244-14.148c0.029-1.563,0.209-2.722,0.548-3.478
				c0.311-0.702,0.847-1.074,1.61-1.117c0.066-0.004,0.135-0.007,0.205-0.006c0.87,0.015,1.461,0.418,1.77,1.195
				c0.31,0.778,0.454,1.937,0.425,3.485L231.499,50.076z"/>
			<path style="fill:#FF6600;" d="M256.555,28.865c-1.239-0.152-2.369,0.101-3.384,0.756c-1.015,0.655-1.728,1.519-2.146,2.607
				l0.439-3.6l-5.544-0.684l-3.852,31.392l5.544,0.684l2.895-23.587c0.137-1.13,0.475-2.002,1.015-2.621
				c0.533-0.612,1.195-0.871,1.973-0.778c0.785,0.101,1.347,0.432,1.692,1.001c0.353,0.561,0.468,1.303,0.36,2.21l-2.995,24.38
				l5.544,0.677l3.039-24.71C261.71,31.889,260.184,29.312,256.555,28.865z"/>
			<path style="fill:#FF6600;" d="M278.148,33.17c-0.892-0.206-1.731-0.301-2.513-0.29c-3.82,0.054-6.331,2.693-7.538,7.922
				l-2.65,11.491c-0.641,2.751-0.835,5.041-0.597,6.869c0.396,2.88,2.318,4.716,5.789,5.515c1.979,0.456,3.645,0.425,4.996-0.094
				c0.29-0.112,0.567-0.247,0.828-0.403c0.699-0.41,1.411-1.181,2.131-2.297c0.72-1.116,1.404-3.074,2.045-5.868l0.382-1.641
				l-5.386-1.246l0,0.002l-0.626,2.712c-0.252,1.095-0.475,1.952-0.677,2.571c-0.202,0.612-0.554,1.181-1.065,1.699
				c-0.295,0.295-0.814,0.353-1.556,0.18c-0.741-0.173-1.224-0.59-1.461-1.253c-0.238-0.67-0.108-2.074,0.389-4.212l1.396-6.055
				l3.6,0.831l6.2,1.43l1.526-6.595c0.706-3.053,0.706-5.538,0.014-7.438C282.683,35.093,280.941,33.819,278.148,33.17z
				 M278.054,42.653l-0.907,3.946l-1.512-0.349l-2.887-0.666l0.878-3.802c0.151-0.662,0.289-1.188,0.411-1.598
				c0.377-1.323,0.91-2.176,1.598-2.56c0.427-0.238,0.915-0.296,1.462-0.169c0,0,0.008-0.001,0.014-0.001
				c0.828,0.194,1.282,0.684,1.383,1.476C278.594,39.73,278.443,40.968,278.054,42.653z"/>
			<path style="fill:#FF6600;" d="M298.005,60.609l-1.498-0.575l-0.993,2.592c-0.404,1.051-0.749,1.872-1.037,2.455
				c-0.281,0.583-0.713,1.094-1.289,1.533c-0.332,0.252-0.857,0.238-1.563-0.036c-0.712-0.273-1.138-0.756-1.274-1.447
				c-0.144-0.691,0.18-2.066,0.965-4.112l2.232-5.81l4.457,1.712l4.932,1.895l2.426-6.322c1.123-2.923,1.476-5.378,1.051-7.358
				c-0.417-1.987-1.965-3.492-4.644-4.522c-1.353-0.52-2.608-0.748-3.765-0.69c-3.14,0.159-5.557,2.444-7.251,6.854l-4.227,11.001
				c-1.008,2.643-1.526,4.882-1.54,6.725c-0.014,2.902,1.642,4.99,4.961,6.264c2.311,0.886,4.255,0.994,5.839,0.325
				c0.689-0.291,1.431-0.868,2.218-1.743l0.209-0.237c0.871-1.008,1.822-2.851,2.844-5.529l0.605-1.57L298.005,60.609z
				 M296.098,48.514c0.245-0.634,0.454-1.138,0.626-1.519c0.386-0.87,0.813-1.508,1.282-1.913c0.633-0.547,1.342-0.672,2.124-0.37
				c0,0,0.008,0,0.022,0.007c0.785,0.302,1.174,0.85,1.159,1.649c-0.014,0.8-0.331,2.009-0.95,3.622l-1.448,3.78l-0.907-0.347
				l-3.305-1.265L296.098,48.514z"/>
			<path style="fill:#FF6600;" d="M321.132,50.019c-1.124,0.245-2.103,0.864-2.938,1.843l1.433-3.218l-5.141-2.289L301.62,75.248
				l5.141,2.289l10.209-22.918c0.59-0.504,1.462-0.713,2.606-0.619c1.145,0.093,2.225,0.367,3.255,0.828l0.496-1.073
				c0.965-2.16,1.419-3.248,1.368-3.269C323.436,49.925,322.248,49.767,321.132,50.019z"/>
		</g>
	</g>
	<g>
		<path style="opacity:0.51;fill-rule:evenodd;clip-rule:evenodd;fill:#026FC1;" d="M107.343,263.963
			c23.213,0,42.04,9.982,42.04,22.291c0,12.309-18.826,22.291-42.04,22.291c-23.214,0-42.04-9.982-42.04-22.291
			C65.303,273.944,84.129,263.963,107.343,263.963z"/>
		<path style="fill-rule:evenodd;clip-rule:evenodd;fill:#014A25;" d="M111.311,143.246c10.648,9.245,21.323,10.866,27.385,10.811
			c7.019-0.232,2.811-6.535-0.037-9.753c-6.442-4.198-31.028-32.984-38.158-19.413C98.557,128.571,100.875,137.734,111.311,143.246z
			"/>
		<path style="fill-rule:evenodd;clip-rule:evenodd;fill:#006633;" d="M141.297,153.384c9.035-5.603,14.455-11.388,18.846-17.165
			c1.032-0.929-4.798-10.162-6.941-7.921c-3.43,3.104-7.794,6.025-18.451,15.539C130.493,149.557,137.151,155.516,141.297,153.384z"
			/>
		<path style="fill-rule:evenodd;clip-rule:evenodd;fill:#EEECF3;" d="M158.919,134.393c-2.816,1.109-6.004-2.49-5.474-5.041
			c0.032-0.078,0.071-0.158,0.116-0.236c0.943-0.759,1.744-1.466,2.396-2.157c2.262-2.364,6.469,3.712,5.38,4.692
			C160.68,132.228,159.866,133.183,158.919,134.393z"/>
		<path style="fill-rule:evenodd;clip-rule:evenodd;fill:#333333;" d="M118.732,273.435c-0.086,0.974,0.369,1.733,0.61,2.709
			c1.301,0.911,6.659,0.369,8.451,0.276l0.078-0.934c1.71,0.091,2.278,0.348,4.018,0.774c6.978,1.707,15.008-1.761,14.064-3.213
			c-0.175-0.27-0.388-0.636-0.654-0.741c-0.598-0.468-4.392-0.655-6.287-0.586c-5.651,0.7-14.042-5.303-14.261-6.407
			c-0.897-0.667-3.693-2.665-3.693-2.665C121.059,262.647,120.684,269.567,118.732,273.435z"/>
		<path style="fill-rule:evenodd;clip-rule:evenodd;" d="M118.496,262.894c2.2,2.075-2.192,9.736,1.329,11.789
			c2.153,0.635,6.996-0.904,12.113,0.928c3.464,1.24,11.956-0.064,14.015-2.563c-0.346-1.701-2.934-1.839-6.092-1.492
			c-2.29,0.251-7.286-1.607-11.982-5.107C127.567,266.229,124.026,251.106,118.496,262.894z"/>
		<polygon style="fill-rule:evenodd;clip-rule:evenodd;fill:#1D1D1B;" points="87.96,296.271 93.837,293.237 87.995,292.681 		"/>
		<path style="fill-rule:evenodd;clip-rule:evenodd;fill:#333333;" d="M88.145,286.297c0,0-5.113,1.836-4.134,6.82
			c0.655,1.406,2.391,2.397,3.949,3.154l0.106-1.003c1.897,0.38,3.944,3.349,5.206,4.535c2.022,1.902,6.946,2.776,12.238,2.223
			c1.599-0.167,2.201-0.71,2.176-1.176c-0.017-0.319-0.413-1.134-0.587-1.352c-0.277-0.689-5.336-4.716-6.968-5.543
			c-4.174-2.111-6.133-6.503-6.558-7.507c-0.434-1.004-1.823-4.06-1.823-4.06C91.751,282.389,91.67,283.828,88.145,286.297z"/>
		<path style="fill-rule:evenodd;clip-rule:evenodd;" d="M87.662,280.488c0.635,2.9-4.983,7.885-3.27,11.466
			c1.388,1.671,6.14,2.951,9.263,7.192c1.147,1.557,6.081,2.694,10.718,2.37c1.654-0.116,3.118-0.761,3.27-1.292
			c0.123-1.749-4.373-4.371-6.964-6.58c-1.423-1.214-5.67-5.885-6.039-6.89c-0.131-0.349-0.037-0.453-0.001-1.304
			c-0.091-0.918,0.034-2.533,0.153-3.719C94.048,281.015,90.962,278.397,87.662,280.488z"/>
		<path style="fill-rule:evenodd;clip-rule:evenodd;fill:#293033;" d="M90.875,197.168c2.769,4.796,5.031,9.383,7.426,14.365
			c5.325,13.637,12.788,15.887,13.655,27.888c4.307,2.122,12.701,4.525,12.259-1.364c-0.274-5.177,0.563-7.718-0.069-11.717
			c-0.181-0.595-1.455-5.811-1.855-7.946c-2.037-11.913-3.92-20.187-10.367-37.233c0,0-9.138-0.004-18.011,3.813
			C94.249,186.851,90.474,196.473,90.875,197.168z"/>
		<path style="fill-rule:evenodd;clip-rule:evenodd;fill:#414649;" d="M81.688,251.188c-1.499,10.656,5.747,18.874,12.817,2.639
			c0.299-0.687,2.695-6.38,2.836-7.117c0.552-3.164,1.249-6.986,1.863-9.577c2.193-9.255,4.613-14.777,5.817-32.924
			c3.818-2.731,3.196-9.1,1.298-21.13c-12.106,10.349-24.725,4.209-28.267,2.061c-1.863,7.938-1.588,19.461,1.128,20.785
			c0.079,4.771,0.259,12.992,1.136,19.023C81.88,235.699,82.574,243.62,81.688,251.188z"/>
		<path style="fill-rule:evenodd;clip-rule:evenodd;fill:#414649;" d="M83.619,246.492c4.623-12.08,7.909-1.201,11.156,4.957
			c-0.594,9.523,0.27,29.746,1.387,37.239c-1.184,6.036-12.572,2.05-12.241-0.823C82.564,274.1,75.384,263.963,83.619,246.492z"/>
		<path style="fill-rule:evenodd;clip-rule:evenodd;fill:#014A25;" d="M90.278,122.293c-4.53,2.563-11.839,8.195-16.325,16.571
			c-3.527,5.57,1.212,8.612,1.326,9.692c-2.136,11.465,1.233,17.134,2.529,25.428c0.858,5.492-3.57,16.059-0.579,31.023
			c2.165,9.702,33.86,6.072,40.481-9.49c-3.763-19.837,0.532-60.097-7.424-71.161c-1.177-1.64-3.216-3.272-5.037-3.06
			C98.742,122.033,94.214,119.84,90.278,122.293z"/>
		<path style="fill-rule:evenodd;clip-rule:evenodd;fill:#293033;" d="M112.249,236.74c2.802-12.628,7.578-9.474,11.693-3.858
			c0.213,9.428,3.667,28.968,6.323,34.715c-0.595,4.539-11.511,6.756-12.283,3.622C115.107,254.163,109.912,251.348,112.249,236.74z
			"/>
		<path style="fill-rule:evenodd;clip-rule:evenodd;fill:#006633;" d="M83.41,128.228c-0.184,3.049,1.405,6.344,4.881,10.032
			c9.117,9.673,16.192,21.148,18.54,30.368c6.204-4.289,5.216-50.383-6.793-48.317C94.645,118.547,83.751,122.564,83.41,128.228z"/>
		<path style="fill-rule:evenodd;clip-rule:evenodd;fill:#EEECF3;" d="M86.91,127.687c-0.025,4.251,18.238,17.099,19.921,40.94
			c1.639-7.203,0.699-41.613-7.116-45.962C95.708,120.436,86.937,123.103,86.91,127.687z"/>
		<path style="fill-rule:evenodd;clip-rule:evenodd;fill:#FFFFFF;" d="M87.13,126.666c-0.382,4.893,8.874,10.258,11.922,11.162
			c0.219-1.835,1.489-4.878,1.727-6.078c1.708,1.001,1.956,1.503,3.912,3.005c-0.064-3.53-0.733-10.511-4.975-12.09
			C95.419,121.067,87.486,122.096,87.13,126.666z"/>
		<path style="fill-rule:evenodd;clip-rule:evenodd;fill:#DB9669;" d="M89.16,115.363c0,0,0.68,5.894-0.608,10.466
			c1.656,3.837,9.844,5.707,12.139,5.66c1.06-0.75,1.194-2.948,1.192-6.918c-3.014-1.991-3.214-2.195-0.706-10.252
			C101.603,111.787,89.159,115.363,89.16,115.363z"/>
		<path style="fill-rule:evenodd;clip-rule:evenodd;fill:#F2B387;" d="M108.404,107.562c-0.067,1.095-1.374,1.238,0.206,5.742
			c0.973,2.783,0.516,2.812-0.741,7.533c-0.711,2.673-2.404,8.338-10.537,3.367c0,0-7.851-6.653-9.93-12.072
			c-2.08-5.421-1.532-10.643,2.983-14.628C89.54,97.503,106.633,91.618,108.404,107.562z"/>
		<path style="fill-rule:evenodd;clip-rule:evenodd;fill:#1D1D1B;" d="M98.349,142.085c1.252-1.655,2.431-5.437,3.683-7.091
			c1.615,0.579,3.867,3.853,5.481,4.433c0.085-2.703,0.304-5.66-1.038-7.888l-5.195-0.036l-5.484,3.077
			C95.952,137.511,96.958,139.917,98.349,142.085z"/>
		<path style="fill-rule:evenodd;clip-rule:evenodd;fill:#999999;" d="M144.316,272.005c-0.99-0.708-3.873,0.056-5.807-0.208
			c-2.54-0.346-7.219-2.57-5.639-1.73c0.806,0.428,5.399,2.438,6.291,2.525C141.224,272.792,144.409,272.232,144.316,272.005z"/>
		<path style="fill-rule:evenodd;clip-rule:evenodd;fill:#999999;" d="M97.761,298.659c1.024,1.331,6.717,1.686,8.388,1.05
			c0.94-0.359-0.191-0.907-0.709-0.907c-0.646,0-1.184,0.15-1.813,0.227c-0.934,0.114-2.517,0.084-3.457-0.113
			C99.784,298.833,97.79,298.244,97.761,298.659z"/>
		<path style="fill-rule:evenodd;clip-rule:evenodd;fill:#DB9669;" d="M157.396,130.225c-2.123-0.816-1.732-3.641-0.754-4.381
			c2.212-1.241,8.4-5.065,8.75-5.266c0.605-0.347,0.052-0.097,0.652-0.362c0.835-0.368,1.295,0.416,0.934,1.885
			c0.881,1.532,0.181,2.097-0.743,3.018c0.803,0.644,1.131,1.04-1.026,2.906c0.262,0.907,1.04,0.94,0.633,1.415
			c-1.402,1.243-4.504,3.408-6.397,2.908C157.865,131.932,158.229,131.455,157.396,130.225z"/>
		<g>
			<path style="fill-rule:evenodd;clip-rule:evenodd;fill:#B76533;" d="M165.972,109.452c1.074,1.251,3.579,0.863,5.594-0.866
				c2.008-1.724,2.773-4.131,1.714-5.385l-2.017-2.35c-2.607-2.96-9.876,3.166-7.221,6.353L165.972,109.452z"/>
			<g>
				<path style="fill-rule:evenodd;clip-rule:evenodd;fill:#924523;" d="M160.096,133.066l9.449-25.771
					c0.499-1.319-0.837-1.909-1.335-0.676l-10.338,25.855C157.416,133.618,159.632,134.391,160.096,133.066z"/>
				<path style="fill-rule:evenodd;clip-rule:evenodd;fill:#B76533;" d="M158.141,132.381l10.407-25.978
					c0.156-0.084,0.318-0.096,0.463-0.049l-10.4,26.715C158.366,132.953,158.063,132.707,158.141,132.381z"/>
			</g>
			<path style="fill-rule:evenodd;clip-rule:evenodd;fill:#CC9933;" d="M169.083,105.695c2.046-1.756,4.603-2.152,5.694-0.882
				c1.09,1.27,0.311,3.738-1.734,5.494c-2.046,1.756-4.603,2.152-5.694,0.882C166.259,109.919,167.038,107.451,169.083,105.695z"/>
			<path style="fill-rule:evenodd;clip-rule:evenodd;fill:#FFCC00;" d="M172.663,102.395c-2.8-2.013-8.991,3.219-7.317,6.415
				c0.508,1.115,1.344,1.849,1.979,2.351c-1.92-3.36,4.756-8.772,7.422-6.382C174.376,103.99,173.473,103.005,172.663,102.395z"/>
			<path style="fill-rule:evenodd;clip-rule:evenodd;fill:#B76533;" d="M168.984,112.962c1.074,1.251,3.579,0.863,5.594-0.867
				c2.008-1.724,2.772-4.131,1.714-5.385l-1.304-1.519c-2.607-2.959-9.876,3.166-7.221,6.352L168.984,112.962z"/>
			<path style="fill-rule:evenodd;clip-rule:evenodd;fill:#924523;" d="M170.761,107.649c1.929-1.656,4.342-2.03,5.37-0.832
				s0.294,3.526-1.635,5.182c-1.929,1.656-4.342,2.03-5.37,0.832C168.097,111.633,168.832,109.305,170.761,107.649z"/>
			<path style="fill-rule:evenodd;clip-rule:evenodd;fill:#813928;" d="M171.087,108.029c1.592-1.368,3.584-1.676,4.433-0.687
				c0.849,0.989,0.242,2.91-1.35,4.278c-1.592,1.367-3.584,1.676-4.433,0.686C168.888,111.317,169.495,109.396,171.087,108.029z"/>
		</g>
		<path style="fill-rule:evenodd;clip-rule:evenodd;fill:#F2B387;" d="M157.417,124.54c0.664-0.852,2.713-2.714,3.556-3.386
			c1.086-0.866,1.905-1.09,2.994-1.955c0.596,0.947,0.433,1.941-1.717,3.326c-2.815,2.489-1.691,5.401-4.86,5.522
			C155.93,128.103,155.137,127.464,157.417,124.54z"/>
		<path style="fill-rule:evenodd;clip-rule:evenodd;fill:#F2B387;" d="M165.904,122.328l-4.07,2.302
			c-1.238,0.7-0.315,2.132,0.972,1.527l4.159-1.951C168.253,123.6,167.143,121.626,165.904,122.328z"/>
		<path style="fill-rule:evenodd;clip-rule:evenodd;fill:#F2B387;" d="M165.469,125.047l-3.429,1.939
			c-1.043,0.59-0.266,1.797,0.819,1.287l3.504-1.645C167.448,126.119,166.513,124.456,165.469,125.047z"/>
		<path style="fill-rule:evenodd;clip-rule:evenodd;fill:#F2B387;" d="M165.33,127.998l-3.225,0.734
			c-0.981,0.224-0.647,1.381,0.349,1.232l3.214-0.479C166.663,129.336,166.311,127.773,165.33,127.998z"/>
		<polygon style="fill-rule:evenodd;clip-rule:evenodd;fill:#924523;" points="105.492,307.464 147.212,331.18 210.072,295.227 
			210.33,288.213 105.234,300.463 		"/>
		<polygon style="fill-rule:evenodd;clip-rule:evenodd;fill:#813928;" points="105.492,307.464 147.471,331.173 147.482,331.166 
			147.482,298.432 105.492,300.456 		"/>
		<polygon style="fill-rule:evenodd;clip-rule:evenodd;fill:#B76533;" points="105.492,300.456 147.47,324.166 210.33,288.214 
			168.833,264.539 		"/>
		<polygon style="fill-rule:evenodd;clip-rule:evenodd;fill:#924523;" points="111.384,299.963 147.245,320.35 202.915,288.507 
			203.136,282.478 111.163,293.947 		"/>
		<polygon style="fill-rule:evenodd;clip-rule:evenodd;fill:#813928;" points="111.384,299.963 147.469,320.343 147.478,320.338 
			147.478,292.2 111.384,293.94 		"/>
		<polygon style="fill-rule:evenodd;clip-rule:evenodd;fill:#B76533;" points="111.385,293.94 147.467,314.32 203.136,282.478 
			167.467,262.129 		"/>
		<polygon style="fill-rule:evenodd;clip-rule:evenodd;fill:#A04D2A;" points="147.385,308.797 193.662,282.32 193.809,172.359 
			147.309,199.372 		"/>
		<polygon style="fill-rule:evenodd;clip-rule:evenodd;fill:#813928;" points="123.463,295.373 147.379,308.881 147.385,308.877 
			147.385,198.921 147.379,198.924 123.463,185.417 		"/>
		<polygon style="fill-rule:evenodd;clip-rule:evenodd;fill:#B76533;" points="153.866,289.62 187.222,270.536 187.327,198.073 
			153.866,217.219 		"/>
		<polygon style="fill-rule:evenodd;clip-rule:evenodd;fill:#9A4728;" points="153.866,286.142 184.162,268.808 184.264,199.827 
			153.866,217.219 		"/>
		<path style="fill-rule:evenodd;clip-rule:evenodd;fill:#813928;" d="M184.162,268.808l3.059,1.728l0.106-72.463
			c-4.333,2.479-13.117,7.505-3.064,1.753L184.162,268.808z"/>
		<polygon style="fill-rule:evenodd;clip-rule:evenodd;fill:#AC532B;" points="142.97,289.346 126.95,280.181 126.845,207.718 
			142.97,216.944 		"/>
		<polygon style="fill-rule:evenodd;clip-rule:evenodd;fill:#763B2A;" points="142.969,285.868 130.009,278.453 129.908,209.471 
			142.969,216.944 		"/>
		<path style="fill-rule:evenodd;clip-rule:evenodd;fill:#924523;" d="M130.009,278.453l-3.058,1.727l-0.106-72.462
			c4.333,2.479,13.117,7.505,3.063,1.753L130.009,278.453z"/>
		<polygon style="fill-rule:evenodd;clip-rule:evenodd;fill:#AC532B;" points="179.378,210.372 158.223,222.475 158.156,272.74 
			179.378,260.599 		"/>
		<polygon style="fill-rule:evenodd;clip-rule:evenodd;fill:#AC532B;" points="131.493,217.824 139.739,222.475 139.806,272.74 
			131.493,268.051 		"/>
		<path style="fill-rule:evenodd;clip-rule:evenodd;fill:#A04D2A;" d="M179.378,213.44l-18.587,10.632l0.01,0.006l-0.064,47.32
			c-3.672,1.91,17.443-9.334,18.641-10.019V213.44z"/>
		<path style="fill-rule:evenodd;clip-rule:evenodd;fill:#813928;" d="M131.493,220.892l5.678,3.179l-0.01,0.006l0.064,47.32
			c3.672,1.91-4.535-1.881-5.732-2.566V220.892z"/>
		<polygon style="fill-rule:evenodd;clip-rule:evenodd;fill:#813928;" points="160.801,224.078 158.223,222.557 158.156,272.74 
			160.737,271.397 		"/>
		<polygon style="fill-rule:evenodd;clip-rule:evenodd;fill:#924523;" points="137.161,224.078 139.739,222.557 139.806,272.74 
			137.225,271.397 		"/>
		<polygon style="fill-rule:evenodd;clip-rule:evenodd;fill:#B76533;" points="130.556,186.444 146.419,195.45 183.428,174.342 
			168.016,165.37 		"/>
		<polygon style="fill-rule:evenodd;clip-rule:evenodd;fill:#984528;" points="167.779,165.505 200.627,184.056 200.638,184.051 
			200.638,168.49 173.613,153.347 155.73,152.539 155.73,162.679 		"/>
		<polygon style="fill-rule:evenodd;clip-rule:evenodd;fill:#A7542D;" points="147.309,214.894 203.487,182.605 203.763,167.084 
			147.309,199.372 		"/>
		<polygon style="fill-rule:evenodd;clip-rule:evenodd;fill:#AC532B;" points="119.499,183.137 128.455,187.958 167.779,165.505 
			155.73,162.678 		"/>
		<polygon style="fill-rule:evenodd;clip-rule:evenodd;fill:#D0834E;" points="119.679,183.658 147.309,199.372 203.763,167.085 
			176.698,151.607 173.611,153.354 196.82,166.704 146.419,195.449 122.713,181.865 		"/>
		<polygon style="fill-rule:evenodd;clip-rule:evenodd;fill:#B76533;" points="176.698,151.607 158.817,150.791 155.73,152.539 
			173.619,153.35 		"/>
		<polygon style="fill-rule:evenodd;clip-rule:evenodd;fill:#984528;" points="113.832,195.74 147.309,214.893 147.309,199.372 
			119.722,183.614 101.839,182.806 101.839,192.946 		"/>
		<polygon style="fill-rule:evenodd;clip-rule:evenodd;fill:#B76533;" points="122.807,181.874 104.926,181.058 101.839,182.806 
			119.728,183.617 		"/>
		<path style="fill-rule:evenodd;clip-rule:evenodd;fill:#006633;" d="M70.831,177.788c-0.47,1.489,10.59,3.394,10.84-0.379
			c2.029-8.897,3.366-5.41,4.681-23.545c4.449-13.144-1.13-17.408-5.278-17.719C65.015,134.942,70.831,177.788,70.831,177.788z"/>
		<g>
			<path style="fill-rule:evenodd;clip-rule:evenodd;fill:#F4BA8A;" d="M107.03,183.469c1.182-0.122,1.94-1.791,2.593-2.724
				c0.74-1.052,2.748-0.531,3.538-2.174c0.757-1.579-5.077,0.638-5.876,0.976c-0.642,0.269-2.586,1.683-2.354,2.587
				C105.334,183.709,106.083,183.359,107.03,183.469z"/>
			<path style="fill-rule:evenodd;clip-rule:evenodd;fill:#F1B287;" d="M103.325,186.671c-1.077-0.478-2.355-3.912-0.731-4.179
				c1.341-0.514,6.532-2.451,6.92-2.515c0.648-0.12,1.071-0.151,1.745-0.192c0.933-0.06,1.29,0.083,2.108,0.565
				c0.703,0.366,2.753,1.36,3.354,1.74c1.011,0.796,2.465,1.691,3.213,2.619c-0.126,0.231-0.473,0.613-0.8,0.62
				c0.304,0.347,0.972,0.818,0.755,1.064c-0.629,0.693-1.55,0.26-1.55,0.26l0.417,0.315c-0.543,0.844-1.309,0.78-1.816,0.651
				c-0.495-0.127-2.004-0.867-2.506-1.016c-1.214-0.352-4.014-1.188-1.222-0.127c1.219,0.443,2.838,1.354,2.227,1.73
				c-1.06,0.652-1.684-0.275-2.95-0.603c-1.117-0.285-3.636-0.599-4.856-0.326C105.001,187.861,104.807,187.328,103.325,186.671z"/>
		</g>
		<path style="fill-rule:evenodd;clip-rule:evenodd;fill:#EEECF3;" d="M99.243,187.603c1.148-1.638,1.44-6.143,0.478-8.579
			c1.122,0.506,2.158,0.938,3.074,1.265c3.174,0.549,2.406,6.412,1.076,7.433C102.947,188.086,101.243,187.767,99.243,187.603z"/>
		<path style="fill-rule:evenodd;clip-rule:evenodd;fill:#006633;" d="M73.459,180.885c6.873,3.666,21.663,8.317,26.673,8.365
			c2.747-0.313,5.118-7.452,1.627-10.204c-6.918-2.467-19.031-10.312-25.233-10.469C74.792,171.877,67.182,177.524,73.459,180.885z"
			/>
		<g>
			<path style="fill-rule:evenodd;clip-rule:evenodd;fill:#924523;" d="M160.858,170.281c0.001-2.783,3.634-5.04,8.115-5.04
				c4.466,0,8.091,2.242,8.115,5.012l-0.001,2.29c-0.085,6.655-16.126,6.801-16.229-0.197V170.281z"/>
			<path style="fill-rule:evenodd;clip-rule:evenodd;fill:#D0834E;" d="M168.973,174.971c4.149,0,7.533-2.102,7.533-4.678
				c0-2.576-3.384-4.678-7.533-4.678c-4.149,0-7.534,2.102-7.534,4.678C161.44,172.869,164.824,174.971,168.973,174.971z"/>
			<path style="fill-rule:evenodd;clip-rule:evenodd;fill:#924523;" d="M168.973,174.154c3.425,0,6.218-1.734,6.218-3.861
				c0-2.127-2.793-3.861-6.218-3.861c-3.425,0-6.218,1.734-6.218,3.861C162.755,172.42,165.548,174.154,168.973,174.154z"/>
			<path style="fill-rule:evenodd;clip-rule:evenodd;fill:#B76533;" d="M174.876,170.762c-0.359-1.824-2.872-3.244-5.903-3.244
				c-3.031,0-5.545,1.421-5.903,3.244c0.358,1.824,2.872,3.245,5.903,3.245C172.004,174.007,174.517,172.586,174.876,170.762z"/>
		</g>
		<path style="fill-rule:evenodd;clip-rule:evenodd;fill:#333333;" d="M107.808,101.652c-0.204,1.483-0.935,2.392-2.004,2.979
			c-3.074-0.228-3.983-0.825-7.85,0.694c-2.766,1.086,0.195,3.137-1.129,4.89c-0.524,0.694-2.681,2.417-2.378,3.609l-2.015-0.805
			c-2.303-3.507-2.779,0.65-3.075,6.513c0-0.001-7.494-11.743-4.148-18.394c2.195-4.355,6.142-8.368,16.723-4.384
			C103.772,97.445,108.089,99.604,107.808,101.652z"/>
		<path style="fill-rule:evenodd;clip-rule:evenodd;fill:#F1B287;" d="M90.51,111.227c-1.793,0.337-1.955,1.887-1.669,3.812
			c0.287,1.925,1.865,4.577,2.901,3.622c1.251-1.153-1.034-2.262-0.607-3.828c0.234-0.857,1.413-1.329,1.743-1.421
			C93.76,113.164,92.303,110.891,90.51,111.227z"/>
		<path style="fill-rule:evenodd;clip-rule:evenodd;fill:#F2B387;" d="M166.139,120.212l-3.669,2.075
			c-1.116,0.631-0.285,1.922,0.876,1.377l3.75-1.76C168.256,121.359,167.255,119.58,166.139,120.212z"/>
	</g>
	<g>
		<g>
			<path style="opacity:0.51;fill-rule:evenodd;clip-rule:evenodd;fill:#026FC1;" d="M283.471,347.31
				c-24.363,0-44.122,10.476-44.122,23.396c0,12.919,19.759,23.395,44.122,23.395c24.364,0,44.123-10.476,44.123-23.395
				C327.594,357.786,307.836,347.31,283.471,347.31z"/>
			<g>
				<path style="fill-rule:evenodd;clip-rule:evenodd;fill:#DB9669;" d="M247.233,171.303c-0.479-1.758-3.067-3.204-4.283-3.63
					c-1.929-1.454-8.035-1.891-8.449-1.979c-0.717-0.154-0.343,1.156-1.028,1.084c-0.132,0.467,1.584,0.874,0.043,2.253
					c0.358,0.72,2.539,0.664,0.341,2.132c0.832,0.45,0.984,0.645,1.667,0.939c0.028,0.991-0.936,0.873-0.377,1.218
					c1.137,1.626,5.157,2.804,6.518,2.949c1.193,0.128,2.208,0.081,3.276-0.15C248.764,175.291,248.776,173.209,247.233,171.303z"/>
				<g>
					<g>
						<path style="fill-rule:evenodd;clip-rule:evenodd;fill:#763B2A;" d="M241.523,189.814l-0.879-46.363
							c-0.026-1.91-2.004-1.988-2.019-0.187l-0.199,46.91C238.421,191.843,241.597,191.714,241.523,189.814z"/>
						<path style="fill-rule:evenodd;clip-rule:evenodd;fill:#B76533;" d="M238.718,189.923l0.226-47.099
							c0.155-0.183,0.353-0.28,0.559-0.293l0.15,48.024C239.287,190.532,238.782,190.373,238.718,189.923z"/>
					</g>
					<path style="fill-rule:evenodd;clip-rule:evenodd;fill:#B2B2B2;" d="M256.698,117.409l-34.435,20.919
						c-0.902,0.548-1.643,1.894-1.643,2.994v21.258c0,1.1,0.742,1.558,1.643,1.01l34.435-20.919
						c0.902-0.548,1.643-1.893,1.643-2.994v-21.258C258.341,117.317,257.6,116.861,256.698,117.409z"/>
					<path style="fill-rule:evenodd;clip-rule:evenodd;fill:#E5E5E5;" d="M257.193,117.78l-34.435,20.919
						c-0.902,0.547-1.644,1.893-1.644,2.994v21.258c0,1.1,0.742,1.558,1.644,1.01l34.435-20.919
						c0.902-0.548,1.643-1.892,1.643-2.994V118.79C258.836,117.689,258.095,117.232,257.193,117.78z"/>
				</g>
				<path style="fill-rule:evenodd;clip-rule:evenodd;fill:#F2B387;" d="M234.575,165.208l4.337,0.899
					c1.319,0.273,0.901,1.832-0.435,1.659l-4.316-0.558C232.825,167.034,233.255,164.932,234.575,165.208z"/>
				<path style="fill-rule:evenodd;clip-rule:evenodd;fill:#F2B387;" d="M234.712,167.244l4.809,0.997
					c1.463,0.303,0.999,2.032-0.483,1.839l-4.786-0.618C232.77,169.27,233.248,166.939,234.712,167.244z"/>
				<path style="fill-rule:evenodd;clip-rule:evenodd;fill:#F2B387;" d="M234.902,169.722l4.053,0.84
					c1.233,0.256,0.842,1.712-0.407,1.55l-4.033-0.521C233.266,171.429,233.669,169.465,234.902,169.722z"/>
				<path style="fill-rule:evenodd;clip-rule:evenodd;fill:#F2B387;" d="M235.622,171.799l3.465,0.259
					c1.054,0.079,0.888,1.334-0.17,1.334l-3.414,0.005C234.446,173.398,234.567,171.72,235.622,171.799z"/>
				<path style="fill-rule:evenodd;clip-rule:evenodd;fill:#F2B387;" d="M244.724,167.999c-0.735-0.864-1.808-1.687-2.722-2.355
					c-1.177-0.862-2.047-1.061-3.228-1.921c-0.584,1.02-0.369,2.057,1.949,3.415c0.693,0.565,1.227,1.065,1.448,1.61
					c0.527,1.296,0.105,3.328,2.781,3.261C246.139,171.981,247.244,170.968,244.724,167.999z"/>
				<g>
					<path style="fill-rule:evenodd;clip-rule:evenodd;fill:#7A5943;" d="M283.97,353.359c-2.429,2.114-0.381,7.435,2.419,8.505
						c2.911,1.112,5.861,0.501,9.405,2.229c0.129,0.667-0.178,1.419,0.198,1.619c2.03,1.399,2.652,2.306,4.067,2.766
						c1.502,0.488,6.487,0.28,7.207-1.713c0.375-1.073-0.779-5.531-0.779-5.531C298.939,362.048,287.309,351.517,283.97,353.359z"/>
					<path style="fill-rule:evenodd;clip-rule:evenodd;fill:#632A25;" d="M293.408,353.786c-3.435,0.181-6.145-1.493-7.255-1.316
						c-0.885,0.131-2.111,1.042-2.368,2.425c-0.43,2.311,0.784,5.263,2.847,6.292c2.215,1.105,4.962,0.564,8.715,2.078
						c2.065,0.833,4.593,3.628,7.728,3.353c2.85-0.251,3.49-1.084,3.676-2.503c0.371-2.786-0.645-5.425-1.534-7.227
						c-1.142-5.355-7.249,0.465-8.187-3.849C296.754,351.769,294.64,353.337,293.408,353.786z"/>
					<g>
						<path style="fill-rule:evenodd;clip-rule:evenodd;fill:#7A5943;" d="M291.737,356.569c0.065-2.161,0.933-2.582,0.933-2.582
							l-0.006-0.015c-0.088-0.001-0.173-0.005-0.256-0.012c-0.233-0.023-0.468,0.089-0.696,0.332
							c-0.228,0.242-0.384,0.547-0.463,0.902c-0.068,0.304-0.119,0.658-0.141,1.072
							C291.047,357.451,291.685,358.303,291.737,356.569z"/>
						<path style="fill-rule:evenodd;clip-rule:evenodd;fill:#7A5943;" d="M292.579,356.267c0.065-2.161,0.933-2.583,0.933-2.583
							l-0.006-0.015c-0.088,0-0.173-0.005-0.256-0.012c-0.233-0.022-0.469,0.089-0.697,0.332c-0.228,0.242-0.384,0.547-0.463,0.903
							c-0.067,0.303-0.118,0.658-0.141,1.071C291.89,357.149,292.527,358.001,292.579,356.267z"/>
						<path style="fill-rule:evenodd;clip-rule:evenodd;fill:#7A5943;" d="M293.49,355.866c-0.116-2.078,0.743-2.628,0.743-2.628
							l-0.008-0.014c-0.09,0.015-0.178,0.025-0.264,0.031c-0.242,0.018-0.476,0.165-0.689,0.436c-0.214,0.27-0.35,0.588-0.402,0.941
							c-0.044,0.303-0.066,0.65-0.055,1.049C292.854,356.826,293.584,357.534,293.49,355.866z"/>
					</g>
					<path style="fill-rule:evenodd;clip-rule:evenodd;fill:#7A5943;" d="M258.33,368.914c-2.429,2.113-0.381,7.435,2.419,8.504
						c2.911,1.112,5.861,0.501,9.405,2.23c0.129,0.667-0.178,1.419,0.198,1.618c2.03,1.399,2.652,2.306,4.067,2.766
						c1.502,0.488,6.487,0.279,7.207-1.713c0.376-1.073-0.779-5.531-0.779-5.531C273.3,377.603,261.669,367.072,258.33,368.914z"/>
					<path style="fill-rule:evenodd;clip-rule:evenodd;fill:#632A25;" d="M267.768,369.341c-3.435,0.181-6.145-1.493-7.255-1.316
						c-0.885,0.131-2.111,1.043-2.368,2.425c-0.431,2.311,0.784,5.263,2.847,6.292c2.215,1.104,4.961,0.564,8.715,2.078
						c2.065,0.833,4.593,3.628,7.728,3.353c2.85-0.25,3.49-1.084,3.676-2.502c0.371-2.786-0.645-5.426-1.534-7.227
						c-1.142-5.355-7.249,0.465-8.187-3.849C271.115,367.324,269.001,368.892,267.768,369.341z"/>
					<path style="fill-rule:evenodd;clip-rule:evenodd;fill:#296B70;" d="M305.74,356.259c-2.336,4.644-10.985,4.839-11.912-1.427
						c-0.541-11.902-9.493-28.593-11.794-37.941c-1.506-19.546-2.353-40.411,2.231-42.348c5.655-1.995,8.718-9.848,14.373-11.844
						c4.349,6.037,4.823,14.783,0.221,19.122c2.812,17.563-2.721,26.362-1.157,32.931
						C303.224,325.825,305.607,352.952,305.74,356.259z"/>
					<path style="fill-rule:evenodd;clip-rule:evenodd;fill:#388287;" d="M265.759,332.149c-0.371-1.62-1.278-5.293-1.34-7.545
						c-3.897-26.063-1.146-42.556,4.179-57.172c5.443-3.325,17.877,1.707,23.319-1.618c6.726,7.853,5.659,12.478-3.934,22.317
						c0.365,16.371-8.654,25.006-8.302,41.409C277.118,333.082,270.09,336.534,265.759,332.149z"/>
					<g>
						<path style="fill-rule:evenodd;clip-rule:evenodd;fill:#7A5943;" d="M266.098,372.124c0.065-2.161,0.933-2.583,0.933-2.583
							l-0.006-0.015c-0.088,0-0.173-0.005-0.256-0.012c-0.233-0.023-0.468,0.09-0.697,0.332c-0.227,0.242-0.384,0.547-0.463,0.903
							c-0.068,0.304-0.118,0.658-0.141,1.071C265.408,373.006,266.044,373.858,266.098,372.124z"/>
						<path style="fill-rule:evenodd;clip-rule:evenodd;fill:#7A5943;" d="M266.94,371.821c0.065-2.161,0.933-2.583,0.933-2.583
							l-0.006-0.015c-0.088,0-0.173-0.004-0.256-0.012c-0.234-0.023-0.469,0.089-0.697,0.331c-0.228,0.243-0.384,0.547-0.463,0.902
							c-0.067,0.304-0.118,0.658-0.141,1.071C266.251,372.704,266.888,373.556,266.94,371.821z"/>
						<path style="fill-rule:evenodd;clip-rule:evenodd;fill:#7A5943;" d="M267.851,371.421c-0.116-2.078,0.743-2.628,0.743-2.628
							l-0.008-0.013c-0.09,0.014-0.178,0.025-0.264,0.031c-0.242,0.019-0.475,0.166-0.689,0.436c-0.214,0.27-0.35,0.588-0.402,0.941
							c-0.044,0.303-0.066,0.65-0.055,1.048C267.215,372.381,267.944,373.088,267.851,371.421z"/>
					</g>
					<path style="fill-rule:evenodd;clip-rule:evenodd;fill:#388287;" d="M280.401,374.353c-5.029,3.77-10.281-0.429-12.365-6.803
						c0.963-9.67-0.491-24.484-2.431-37.268c-1.091-7.882,11.182-10.888,14.35-0.491
						C284.624,340.494,280.374,369.82,280.401,374.353z"/>
				</g>
				<path style="fill-rule:evenodd;clip-rule:evenodd;fill:#C93F30;" d="M303.201,209.731c-0.33-8.354-29.275-11.679-35-20.373
					l-18.816-17.848c-4.339-0.509-6.813,3.866-7.566,6.916c4.582,3.872,16.075,31.135,50.722,40.352
					C299.632,220.665,303.472,216.586,303.201,209.731z"/>
				<path style="fill-rule:evenodd;clip-rule:evenodd;fill:#C93F30;" d="M279.035,210.834c-0.903,0.25-6.367,2.851-10.353,8.001
					c-2.914,3.795-2.757,12.272-2.64,13.391c0.731,7.271,0.826,48.415-1.464,58.43c6.924,7.385,38.887,3.277,39.855-8.581
					c-1.252-7.283-1.24-35.451-0.474-39.47c0.763-4.031,3.634-28.071-1.664-35.439c-1.219-1.699-3.33-3.389-5.217-3.17
					C290.341,204.76,280.156,210.525,279.035,210.834z"/>
				<path style="fill-rule:evenodd;clip-rule:evenodd;fill:#F2B387;" d="M273.99,180.613c0.053,1.852-1.324,4.216-1.721,6.022
					c-0.278,1.263-0.405,1.637,0.083,2.765c0.745,1.734,0.54,3.31,0.111,5.019c-0.514,2.053,0.125,4.236,0.715,6.277
					c0.466,1.61,0.712,3.494,2.163,4.46c3.613,2.415,7.679,0.992,11.325-0.29c3.613-1.256,3.006-7.671,4.133-10.665
					c2.034-5.41,0.529-12.989-5.432-15.341c-2.67-1.044-7.063-1.565-9.795-0.518C274.627,178.704,273.99,180.613,273.99,180.613z"/>
				<path style="fill-rule:evenodd;clip-rule:evenodd;fill:#F2B387;" d="M279.004,202.439c0,0-0.389,6.623,0.983,9.867
					c0.397,0.956,1.22,0.12,4.126,0.179c4.616,0.094,9.848-2.168,9.669-3.671c-0.845-2.061-3.055-4.092-1.651-12.436
					C292.572,193.754,279.004,202.439,279.004,202.439z"/>
				<path style="fill-rule:evenodd;clip-rule:evenodd;fill:#4F2B0C;" d="M292.547,175.419c-5.275-3.323-14.03-2.215-17.961,0.979
					c-2.46,2-3.379,3.173-2.437,5.037c0.942,1.863,2.201,1.344,2.947,5.791c0.267,1.608,2.28,3.064,2.608,4.376
					c4.353,17.375,13.624,10.208,13.95,9.45c2.749-6.51,4.58-5.028,5.845-8.925C299.414,186.22,300.6,180.489,292.547,175.419z"/>
				<path style="fill-rule:evenodd;clip-rule:evenodd;fill:#F2B387;" d="M280.403,195.887c-0.778,2.002-1.221,3.859-2.097,3.527
					c-0.88-0.352-1.828-2.239-1.056-4.241c0.785-1.998,1.208-3.917,2.153-3.939C281.179,191.203,281.181,193.879,280.403,195.887z"
					/>
				<path style="fill-rule:evenodd;clip-rule:evenodd;fill:#F2B387;" d="M276.796,262.474
					c-0.429,10.475-10.308,20.538-11.425,25.496c-0.311,1.408-6.258-1.159-5.09-4.284c1.886-5.086,3.779-9.517,3.879-20.376
					c0.019-2.372,0.834-9.448,4.67-9.228C272.665,254.316,277.086,255.069,276.796,262.474z"/>
				<path style="fill-rule:evenodd;clip-rule:evenodd;fill:#F2B387;" d="M265.597,285.169c-0.289-1.447-4.138-3.944-4.903-2.031
					c-0.996,1.497-4.778,7.308-4.963,7.765c-0.32,0.762-0.477,1.268-0.708,2.08c-0.331,1.124-0.255,1.6,0.112,2.729
					c0.255,0.96,0.909,3.735,1.212,4.574c0.693,1.452,1.391,3.473,2.322,4.639c0.316-0.091,0.876-0.41,0.975-0.807
					c0.341,0.465,0.736,1.409,1.092,1.212c1.018-0.58,0.74-1.823,0.74-1.823l0.274,0.595c1.178-0.433,1.31-1.387,1.29-2.042
					c-0.02-0.639-0.513-2.686-0.557-3.337c-0.101-1.581-0.357-5.228,0.176-1.529c0.209,1.609,0.88,3.836,1.508,3.191
					c1.086-1.117,0.12-2.129,0.069-3.765c-0.046-1.442,0.261-4.606,0.926-6.024C266.596,287.541,265.996,287.163,265.597,285.169z"
					/>
				<path style="fill-rule:evenodd;clip-rule:evenodd;fill:#FFFFFF;" d="M292.349,205.337c-3.217,0.906-6.867,3.02-10.876,4.494
					c-3.058,1.124-3.807,1.848-5.119,2.791c5.955,0.27,6.326,1.291,13.19-1.031c3.026-1.024,5.605-2.227,4.379-4.501
					C293.144,206.223,293.126,206.203,292.349,205.337z"/>
				<path style="fill-rule:evenodd;clip-rule:evenodd;fill:#DB4939;" d="M293.24,206.093c-3.445,2.709-8.7,3.742-13.758,4.563
					c-3.197,0.632-3.807,1.848-5.119,2.791c5.956,0.269,10.49,0.333,17.353-1.989C295.484,210.184,295.358,208.451,293.24,206.093z"
					/>
				<path style="fill-rule:evenodd;clip-rule:evenodd;fill:#DB4939;" d="M268.683,218.835c-6.772,5.722-0.309,31.884-4.31,41.904
					l-7.365,23.969c-0.702,3.217,2.85,6.574,8.833,6.998c4.479-6.521,19.168-37.406,13.628-69.081
					C278.507,217.126,274.239,214.14,268.683,218.835z"/>
			</g>
		</g>
		<path d="M237.247,138.27c0,1.775-0.417,3.105-1.246,3.994c1.014-0.197,1.519,0.806,1.519,3.003v0.422
			c-0.011,1.663-0.259,3.001-0.748,4.015c-0.486,1.015-1.285,1.846-2.39,2.489l-0.014,0.008v-1.961
			c0.327-0.237,0.564-0.544,0.71-0.918c0.171-0.442,0.257-1.106,0.257-1.995v-1.33c0-0.835-0.07-1.386-0.21-1.653
			c-0.135-0.251-0.386-0.276-0.757-0.074v-1.896c0.28-0.199,0.468-0.444,0.566-0.733c0.117-0.343,0.174-0.942,0.174-1.799v-0.991
			c-0.005-0.633-0.08-1.018-0.227-1.147c-0.109-0.099-0.282-0.101-0.514-0.005v-1.985c1.035-0.594,1.77-0.738,2.207-0.43
			c0.442,0.315,0.666,1.14,0.671,2.48V138.27z M234.368,152.202l-3.137,1.828V137.54l3.084-1.797l0.053-0.03v1.985
			c-0.074,0.03-0.152,0.07-0.238,0.119l-0.729,0.425v4.704l0.801-0.467c0.059-0.034,0.113-0.069,0.166-0.107v1.896l-0.053,0.029
			l-0.914,0.533v5.986l0.771-0.449c0.069-0.04,0.134-0.082,0.196-0.128V152.202z"/>
		<polygon points="239.294,149.332 239.294,132.842 241.464,131.578 241.464,148.067 		"/>
		<path d="M246.77,143.012c0.289-0.214,0.509-0.488,0.656-0.818c0.18-0.405,0.271-1.008,0.271-1.808l-0.008-8.138
			c0-0.854-0.091-1.411-0.271-1.668c-0.14-0.196-0.356-0.241-0.648-0.136v-1.959l0.101-0.059c1.047-0.61,1.807-0.695,2.279-0.257
			c0.473,0.441,0.707,1.356,0.707,2.751l0.009,7.434c0,1.663-0.238,3.02-0.713,4.071c-0.475,1.051-1.26,1.895-2.354,2.532
			l-0.029,0.017V143.012z M245.843,143.568l0.713-0.415c0.076-0.044,0.146-0.09,0.214-0.14v1.963l-3.096,1.804V130.29l3.096-1.804
			v1.959c-0.09,0.032-0.185,0.078-0.289,0.138l-0.638,0.372V143.568z"/>
	</g>
	<g>
		<g>
			<path style="fill-rule:evenodd;clip-rule:evenodd;fill:#DB9669;" d="M335.409,116.05c1.011,0.765,4.908,0.179,4.314-1.488
				c-0.215-1.529-1.095-7.422-1.237-7.82c-0.225-0.673-0.415-1.086-0.728-1.742c-0.429-0.91-0.75-1.171-1.629-1.69
				c-0.71-0.471-2.713-1.882-3.384-2.25c-1.275-0.537-2.875-1.439-4.137-1.659c-0.152,0.239-0.33,0.765-0.167,1.076
				c-0.484-0.106-1.276-0.489-1.394-0.157c-0.325,0.953,0.562,1.593,0.562,1.593l-0.514-0.228c-0.512,0.951-0.053,1.638,0.334,2.048
				c0.377,0.399,1.859,1.434,2.26,1.829c0.964,0.959,3.209,3.159,0.757,1.084c-1.052-0.917-2.752-1.966-2.788-1.194
				c-0.062,1.337,1.136,1.441,2.103,2.462c0.85,0.903,2.457,3.11,2.836,4.4C333.417,115.092,334.019,114.997,335.409,116.05z"/>
			<path style="fill-rule:evenodd;clip-rule:evenodd;fill:#F2B387;" d="M336.492,110.896c-0.501-1.176,0.675-2.758,1.213-3.857
				c0.605-1.245-0.931-2.863,0.203-4.462c1.091-1.535,2.043,5.11,2.142,6.037c0.081,0.745-0.237,3.31-1.209,3.562
				C337.15,112.618,337.09,111.73,336.492,110.896z"/>
			<path style="fill-rule:evenodd;clip-rule:evenodd;fill:#DB9669;" d="M321.241,195.992c-1.003-1.661-3.764-3.893-4.774-4.629
				c-1.302-0.948-2.124-1.147-3.427-2.094c-0.189,1.192-0.828,1.642,1.626,3.123c1.308,1.598,3.125,7.906,5.363,6.319
				C321.096,197.49,322.646,197.978,321.241,195.992z"/>
			<g>
				<g>
					<path style="fill-rule:evenodd;clip-rule:evenodd;fill:#763B2A;" d="M315.667,199.607l-0.879-46.362
						c-0.027-1.911-2.004-1.989-2.019-0.187l-0.199,46.909C312.564,201.636,315.741,201.507,315.667,199.607z"/>
					<path style="fill-rule:evenodd;clip-rule:evenodd;fill:#B76533;" d="M312.862,199.717l0.226-47.099
						c0.155-0.183,0.353-0.28,0.559-0.293l0.15,48.024C313.431,200.326,312.926,200.166,312.862,199.717z"/>
				</g>
				<path style="fill-rule:evenodd;clip-rule:evenodd;fill:#B2B2B2;" d="M330.841,127.202l-34.435,20.919
					c-0.902,0.548-1.643,1.893-1.643,2.994v21.258c0,1.101,0.741,1.558,1.643,1.01l34.435-20.919
					c0.902-0.548,1.643-1.893,1.643-2.994v-21.258C332.484,127.111,331.744,126.654,330.841,127.202z"/>
				<path style="fill-rule:evenodd;clip-rule:evenodd;fill:#E5E5E5;" d="M331.336,127.573l-34.435,20.919
					c-0.902,0.548-1.643,1.894-1.643,2.994v21.258c0,1.1,0.741,1.558,1.643,1.01l34.435-20.919c0.902-0.548,1.643-1.893,1.643-2.994
					v-21.258C332.979,127.482,332.238,127.025,331.336,127.573z"/>
			</g>
			<path style="opacity:0.51;fill-rule:evenodd;clip-rule:evenodd;fill:#026FC1;" d="M366.124,298.799
				c-24.363,0-44.122,10.477-44.122,23.396c0,12.919,19.759,23.395,44.122,23.395c24.364,0,44.123-10.476,44.123-23.395
				C410.246,309.276,390.488,298.799,366.124,298.799z"/>
			<path style="fill-rule:evenodd;clip-rule:evenodd;fill:#C9CBDB;" d="M341.576,143.388c-2.429-3.074,6.501-7.886,9.83-5.464
				c8.854,4.509,6.41-0.721,22.492,10.828c19.488,3.026,14.649,15.556,12.1,19.302C377.586,180.246,344.996,148.597,341.576,143.388
				z"/>
			<path style="fill-rule:evenodd;clip-rule:evenodd;fill:#C9CBDB;" d="M340.32,141.505c-2.736-8.029-8.5-20.821-4.411-23.522
				c1.03-0.68,2.137-1.735,7.538-1.116c1.589,1.169,12.144,19.43,11.227,26.122C350.824,144.274,344.755,148.606,340.32,141.505z"/>
			<path style="fill-rule:evenodd;clip-rule:evenodd;fill:#527CD2;" d="M334.754,119.981c1.416-1.655,6.088-3.184,8.918-2.83
				c-0.837-1.047-1.574-2.022-2.167-2.899c-1.44-3.198-7.414-0.8-8.13,0.88C333.241,116.205,334.039,117.916,334.754,119.981z"/>
			<path style="fill-rule:evenodd;clip-rule:evenodd;fill:#9D9D9C;" d="M369.926,308.156c-2.488,2.166-0.39,7.618,2.479,8.714
				c2.983,1.14,6.005,0.513,9.637,2.285c0.132,0.684-0.183,1.454,0.203,1.658c2.081,1.433,2.717,2.363,4.167,2.835
				c1.539,0.5,6.647,0.286,7.385-1.755c0.385-1.1-0.798-5.668-0.798-5.668C385.265,317.06,373.348,306.269,369.926,308.156z"/>
			<path style="fill-rule:evenodd;clip-rule:evenodd;fill:#351536;" d="M379.597,308.594c-3.52,0.185-6.297-1.53-7.434-1.349
				c-0.907,0.134-2.163,1.068-2.426,2.484c-0.442,2.368,0.803,5.393,2.917,6.448c2.271,1.132,5.084,0.578,8.93,2.129
				c2.116,0.853,4.707,3.718,7.919,3.435c2.921-0.256,3.576-1.111,3.767-2.564c0.381-2.855-0.661-5.559-1.572-7.405
				c-1.171-5.487-7.428,0.477-8.388-3.944C383.026,306.527,380.861,308.134,379.597,308.594z"/>
			<g>
				<path style="fill-rule:evenodd;clip-rule:evenodd;fill:#9D9D9C;" d="M377.885,311.445c0.066-2.214,0.956-2.646,0.956-2.646
					l-0.006-0.016c-0.09,0-0.177-0.004-0.262-0.012c-0.239-0.023-0.48,0.092-0.713,0.34c-0.233,0.248-0.394,0.56-0.475,0.924
					c-0.069,0.311-0.121,0.675-0.144,1.098C377.179,312.349,377.831,313.223,377.885,311.445z"/>
				<path style="fill-rule:evenodd;clip-rule:evenodd;fill:#9D9D9C;" d="M378.749,311.135c0.067-2.215,0.956-2.646,0.956-2.646
					l-0.006-0.016c-0.09,0-0.177-0.005-0.262-0.012c-0.239-0.023-0.48,0.091-0.713,0.34c-0.233,0.248-0.393,0.56-0.475,0.925
					c-0.069,0.311-0.121,0.674-0.144,1.098C378.042,312.039,378.695,312.913,378.749,311.135z"/>
				<path style="fill-rule:evenodd;clip-rule:evenodd;fill:#9D9D9C;" d="M379.682,310.725c-0.119-2.129,0.761-2.693,0.761-2.693
					l-0.008-0.014c-0.093,0.015-0.183,0.026-0.271,0.032c-0.248,0.019-0.487,0.169-0.707,0.447
					c-0.219,0.277-0.358,0.603-0.411,0.964c-0.045,0.31-0.068,0.666-0.056,1.075C379.03,311.709,379.777,312.434,379.682,310.725z"
					/>
			</g>
			<path style="fill-rule:evenodd;clip-rule:evenodd;fill:#F2B387;" d="M353.076,126.238c-0.04,1.764-1.465,3.945-1.93,5.643
				c-0.325,1.187-0.465,1.537-0.056,2.633c0.624,1.685,0.352,3.175-0.14,4.779c-0.589,1.927-0.088,4.035,0.373,6.004
				c0.365,1.554,0.507,3.357,1.839,4.348c3.318,2.474,7.255,1.318,10.784,0.277c3.497-1.018,3.233-7.148,4.451-9.941
				c2.198-5.046,1.138-12.327-4.417-14.856c-2.488-1.124-6.641-1.833-9.29-0.971C353.775,124.454,353.076,126.238,353.076,126.238z"
				/>
			<path style="fill-rule:evenodd;clip-rule:evenodd;fill:#DB9669;" d="M356.697,144.874c0,0-3.231,8.989,2.467,15.789
				c0.396,0.902,0.851-4.224,3.619-4.225c4.396,0,11.191-0.735,10.992-2.162c-0.845-1.947-4.543-7.725-3.368-15.696
				C370.776,136.073,357.474,137.7,356.697,144.874z"/>
			<path style="fill-rule:evenodd;clip-rule:evenodd;fill:#4F2B0C;" d="M360.495,120.529c-3.481,0.187-8.3,1.945-8.402,3.555
				c0.403,0.571,0.133,2.966,0.903,3.423c0.294,0.174,0.566,0.597,0.998,1.076c0.015,0.813-0.81,2.457,0.242,3.941
				c1.053,1.483,1.977,4.136,2.225,5.401c0.103,0.522,0.953,0.174,1.223,0.586c1.145,1.739,2.455,1.868,2.788,6.844
				c4.401,5.774,10.389,3.756,10.665,3.196c2.932-6.057,3.689-6.264,5.083-9.909C380.726,126.842,372.182,119.902,360.495,120.529z"
				/>
			<path style="fill-rule:evenodd;clip-rule:evenodd;fill:#F2B387;" d="M359.777,141.385c-0.838,1.867-1.351,3.61-2.167,3.252
				c-0.82-0.378-1.629-2.218-0.796-4.085c0.844-1.862,1.34-3.666,2.239-3.641C360.744,136.968,360.615,139.513,359.777,141.385z"/>
			<path style="fill-rule:evenodd;clip-rule:evenodd;fill:#527CD2;" d="M368.051,151.478c-5.493,1.761-13.223,6.498-12.571,9.61
				c0.652,3.111,5.636,4.206,11.13,2.446c5.493-1.762,9.419-5.713,8.768-8.825C374.725,151.598,373.544,149.717,368.051,151.478z"/>
			<path style="fill-rule:evenodd;clip-rule:evenodd;fill:#9D9D9C;" d="M339.082,323.18c-2.489,2.166-0.39,7.618,2.479,8.714
				c2.983,1.14,6.005,0.513,9.638,2.285c0.132,0.684-0.183,1.454,0.203,1.658c2.08,1.433,2.718,2.364,4.167,2.835
				c1.539,0.5,6.647,0.286,7.385-1.755c0.384-1.1-0.798-5.668-0.798-5.668C354.421,332.084,342.504,321.293,339.082,323.18z"/>
			<path style="fill-rule:evenodd;clip-rule:evenodd;fill:#351536;" d="M348.754,323.617c-3.52,0.185-6.298-1.53-7.434-1.348
				c-0.907,0.134-2.163,1.068-2.427,2.484c-0.441,2.368,0.803,5.393,2.918,6.448c2.27,1.132,5.084,0.578,8.93,2.129
				c2.115,0.853,4.707,3.718,7.918,3.436c2.921-0.256,3.576-1.111,3.767-2.564c0.381-2.855-0.66-5.559-1.572-7.405
				c-1.17-5.487-7.428,0.477-8.389-3.944C352.183,321.551,350.016,323.158,348.754,323.617z"/>
			<path style="fill-rule:evenodd;clip-rule:evenodd;fill:#3F210A;" d="M392.234,311.128c-2.394,4.759-11.256,4.958-12.207-1.462
				c-0.555-12.195-9.728-29.299-12.085-38.878c-1.543-20.029-2.412-41.409,2.286-43.394c5.794-2.044,8.934-10.091,14.728-12.136
				c4.456,6.186,4.941,15.148,0.227,19.594c2.881,17.998-2.788,27.013-1.186,33.745
				C389.656,279.942,392.098,307.739,392.234,311.128z"/>
			<path style="fill-rule:evenodd;clip-rule:evenodd;fill:#742F26;" d="M346.805,285.277c-0.268-1.682-0.944-5.498-0.853-7.806
				c-2.197-26.914,1.748-43.588,8.195-58.166c5.792-3.026,18.159,2.971,23.952-0.056c6.338,8.491,4.931,13.146-5.553,22.546
				c-0.75,16.764-10.564,24.972-11.328,41.768C358.354,287.011,350.932,290.058,346.805,285.277z"/>
			<path style="fill-rule:evenodd;clip-rule:evenodd;fill:#DADAE4;" d="M388.972,221.053c-6.571,10.792-36.425,7.462-36.205-2.406
				c1.369-12.732-1.043-22.547-2.427-26.497c-6.083-8.669-9.646-22.045-0.29-29.477c11.203-7.036,22.958-12.135,29.018-10.642
				c10.559,2.601,10.864,14.479,11.708,23.272C392.288,191.041,387.336,212.669,388.972,221.053z"/>
			<path style="fill-rule:evenodd;clip-rule:evenodd;fill:#EEECF3;" d="M352.241,207.147c-2.246,3.21-11.943-0.537-10.581-4.422
				c1.773-9.777-0.193-8.649,2.516-24.727c1.166-15.065,6.098-16.829,10.418-15.464C368.69,167.086,352.24,207.147,352.241,207.147z
				"/>
			<g>
				<path style="fill-rule:evenodd;clip-rule:evenodd;fill:#9D9D9C;" d="M347.042,326.469c0.066-2.214,0.956-2.647,0.956-2.647
					l-0.006-0.016c-0.09,0-0.177-0.004-0.262-0.012c-0.239-0.023-0.48,0.092-0.714,0.34c-0.233,0.248-0.393,0.56-0.474,0.924
					c-0.07,0.311-0.122,0.675-0.145,1.098C346.335,327.373,346.987,328.247,347.042,326.469z"/>
				<path style="fill-rule:evenodd;clip-rule:evenodd;fill:#9D9D9C;" d="M347.905,326.159c0.066-2.214,0.956-2.646,0.956-2.646
					l-0.006-0.016c-0.09,0-0.178-0.005-0.262-0.012c-0.239-0.024-0.48,0.091-0.713,0.34c-0.233,0.248-0.394,0.56-0.475,0.925
					c-0.069,0.311-0.121,0.674-0.144,1.098C347.198,327.063,347.851,327.937,347.905,326.159z"/>
				<path style="fill-rule:evenodd;clip-rule:evenodd;fill:#9D9D9C;" d="M348.838,325.749c-0.119-2.129,0.761-2.693,0.761-2.693
					l-0.007-0.014c-0.093,0.015-0.183,0.026-0.271,0.032c-0.249,0.019-0.487,0.169-0.707,0.446
					c-0.219,0.277-0.358,0.603-0.411,0.964c-0.045,0.31-0.068,0.666-0.056,1.074C348.186,326.733,348.934,327.458,348.838,325.749z"
					/>
			</g>
			<path style="fill-rule:evenodd;clip-rule:evenodd;fill:#742F26;" d="M361.698,328.754c-5.153,3.863-10.534-0.44-12.67-6.97
				c0.987-9.909-0.504-25.088-2.491-38.189c-1.118-8.077,11.458-11.156,14.705-0.503
				C366.025,294.059,361.671,324.108,361.698,328.754z"/>
			<path style="fill-rule:evenodd;clip-rule:evenodd;fill:#EEECF3;" d="M348.247,208.798c-8.475-0.332-23.814,0.65-24.863-4.135
				c-0.424-1.939-8.946-6.872,2.07-8.528c3.701-2.479,11.979,2.629,19.817-1.48C345.085,198.71,358.994,207.367,348.247,208.798z"/>
			<path style="fill-rule:evenodd;clip-rule:evenodd;fill:#F2B387;" d="M321.624,201.934c0.682-0.725,2.528-4.172,0.916-5.177
				c-2.37-1.014-4.891-2.829-5.266-2.992c-0.648-0.285-4.843-1.711-5.495-1.915c-0.905-0.284-1.702,0.762-1.465,2.188
				c-0.335,0.729-0.483,1.846,0.081,2.515c-0.242,0.742-0.453,1.281,0.116,2.435c-0.088,0.547-0.604,1.263-0.199,1.694
				c0.898,1.625,2.901,1.707,5.465,2.266C318.24,203.485,319.818,203.852,321.624,201.934z"/>
			<path style="fill-rule:evenodd;clip-rule:evenodd;fill:#527CD2;" d="M323.433,204.864c-0.651-2.191,0.236-6.612,2.161-8.903
				c-1.477,0.018-3.236-0.167-4.079-0.234c-3.251-0.126-4.213,6-3.141,7.589C319.244,204.045,321.207,204.317,323.433,204.864z"/>
		</g>
		<path d="M311.39,147.717c0,1.775-0.417,3.105-1.246,3.994c1.014-0.197,1.52,0.806,1.52,3.003v0.422
			c-0.011,1.663-0.259,3.001-0.749,4.016c-0.486,1.015-1.285,1.845-2.39,2.489l-0.014,0.008v-1.961
			c0.327-0.237,0.564-0.544,0.71-0.919c0.172-0.442,0.257-1.106,0.257-1.995v-1.33c0-0.835-0.069-1.386-0.21-1.653
			c-0.135-0.252-0.386-0.276-0.757-0.074v-1.896c0.28-0.199,0.468-0.444,0.566-0.733c0.116-0.343,0.174-0.942,0.174-1.8v-0.992
			c-0.005-0.633-0.08-1.018-0.227-1.147c-0.109-0.099-0.282-0.101-0.514-0.005v-1.985c1.035-0.594,1.77-0.738,2.207-0.43
			c0.442,0.315,0.666,1.14,0.671,2.48V147.717z M308.511,161.65l-3.136,1.828v-16.489l3.084-1.797l0.052-0.029v1.985
			c-0.074,0.03-0.152,0.07-0.238,0.12l-0.729,0.425v4.704l0.801-0.467c0.059-0.034,0.113-0.069,0.166-0.107v1.896l-0.052,0.028
			l-0.914,0.533v5.987l0.771-0.449c0.069-0.04,0.134-0.082,0.196-0.128V161.65z"/>
		<polygon points="313.438,158.779 313.438,142.29 315.607,141.025 315.607,157.515 		"/>
		<path d="M320.913,152.46c0.289-0.214,0.509-0.488,0.656-0.818c0.18-0.405,0.271-1.008,0.271-1.808l-0.008-8.138
			c0-0.854-0.091-1.411-0.271-1.668c-0.14-0.195-0.356-0.241-0.648-0.136v-1.959l0.101-0.059c1.047-0.61,1.807-0.695,2.279-0.257
			c0.473,0.441,0.707,1.356,0.707,2.751l0.009,7.434c0,1.663-0.238,3.02-0.713,4.071c-0.475,1.051-1.26,1.895-2.354,2.532
			l-0.029,0.017V152.46z M319.986,153.015l0.713-0.415c0.076-0.044,0.147-0.09,0.214-0.14v1.963l-3.096,1.804v-16.489l3.096-1.804
			v1.959c-0.09,0.032-0.185,0.078-0.289,0.138l-0.638,0.372V153.015z"/>
	</g>
	<g>
		
			<ellipse style="opacity:0.51;fill-rule:evenodd;clip-rule:evenodd;fill:#026FC1;" cx="223.739" cy="413.714" rx="44.122" ry="23.395"/>
		<g>
			<g>
				<path style="fill-rule:evenodd;clip-rule:evenodd;fill:#DB9669;" d="M244.709,315.93c-1.777,0.328-3.418,2.768-3.939,3.934
					c-1.596,1.787-2.53,7.784-2.651,8.186c-0.211,0.695,1.114,0.434,0.987,1.104c0.451,0.169,0.994-1.493,2.229,0.142
					c0.741-0.294,0.865-2.454,2.135-0.162c0.513-0.785,0.717-0.919,1.064-1.57c0.981,0.054,0.786,0.997,1.172,0.473
					c1.701-0.989,3.194-4.865,3.45-6.198c0.225-1.168,0.262-2.175,0.122-3.249C248.776,314.744,246.719,314.562,244.709,315.93z"/>
				<path style="fill-rule:evenodd;clip-rule:evenodd;fill:#F2B387;" d="M237.645,327.936l1.245-4.211
					c0.379-1.281,1.884-0.74,1.603,0.566l-0.906,4.218C239.306,329.816,237.265,329.217,237.645,327.936z"/>
				<path style="fill-rule:evenodd;clip-rule:evenodd;fill:#F2B387;" d="M239.669,327.969l1.381-4.671
					c0.42-1.421,2.089-0.82,1.778,0.628l-1.005,4.679C241.511,330.054,239.248,329.39,239.669,327.969z"/>
				<path style="fill-rule:evenodd;clip-rule:evenodd;fill:#F2B387;" d="M242.133,327.984l1.163-3.935
					c0.354-1.197,1.761-0.691,1.498,0.529l-0.847,3.942C243.685,329.74,241.778,329.181,242.133,327.984z"/>
				<path style="fill-rule:evenodd;clip-rule:evenodd;fill:#F2B387;" d="M244.245,327.444l0.54-3.403
					c0.164-1.035,1.391-0.767,1.305,0.278l-0.276,3.374C245.728,328.738,244.079,328.479,244.245,327.444z"/>
				<path style="fill-rule:evenodd;clip-rule:evenodd;fill:#F2B387;" d="M241.238,318.137c-0.914,0.655-1.816,1.649-2.55,2.496
					c-0.948,1.092-1.217,1.936-2.163,3.032c0.96,0.661,2.002,0.534,3.535-1.645c0.615-0.638,1.153-1.125,1.71-1.298
					c1.324-0.414,3.297,0.17,3.451-2.48C245.289,317.067,244.379,315.891,241.238,318.137z"/>
			</g>
			<path style="fill-rule:evenodd;clip-rule:evenodd;fill:#EEECF3;" d="M250.608,313.538c-2.136,0.642-7.235,0.813-9.478-1.058
				c0.023,1.441-0.152,3.158-0.214,3.982c-0.113,3.173,6.851,2.385,8.61,0.841C250.069,316.152,250.082,315.713,250.608,313.538z"/>
			<path style="fill-rule:evenodd;clip-rule:evenodd;fill:#D4A35B;" d="M251.604,310.716c-2.372,0.713-8.034,0.902-10.526-1.175
				c0.025,1.601-0.169,3.507-0.238,4.422c-0.125,3.524,7.608,2.649,9.561,0.934C251.005,313.619,251.02,313.131,251.604,310.716z"/>
			<path style="fill-rule:evenodd;clip-rule:evenodd;fill:#7A5943;" d="M223.726,397.534c-2.428,2.114-0.381,7.435,2.42,8.505
				c2.911,1.112,5.86,0.501,9.405,2.229c0.129,0.668-0.178,1.419,0.198,1.619c2.03,1.399,2.652,2.306,4.066,2.766
				c1.502,0.488,6.487,0.28,7.207-1.713c0.375-1.073-0.779-5.531-0.779-5.531C238.696,406.224,227.066,395.694,223.726,397.534z"/>
			<path style="fill-rule:evenodd;clip-rule:evenodd;fill:#632A25;" d="M233.165,397.962c-3.436,0.18-6.145-1.493-7.255-1.316
				c-0.885,0.131-2.111,1.042-2.368,2.425c-0.431,2.311,0.784,5.263,2.847,6.292c2.215,1.105,4.962,0.564,8.715,2.078
				c2.065,0.833,4.593,3.628,7.728,3.353c2.85-0.25,3.49-1.084,3.676-2.503c0.372-2.786-0.644-5.425-1.534-7.227
				c-1.142-5.355-7.249,0.465-8.186-3.849C236.511,395.945,234.397,397.513,233.165,397.962z"/>
			<g>
				<path style="fill-rule:evenodd;clip-rule:evenodd;fill:#7A5943;" d="M231.493,400.745c0.065-2.161,0.933-2.583,0.933-2.583
					l-0.006-0.015c-0.088,0-0.173-0.005-0.256-0.012c-0.233-0.022-0.468,0.089-0.696,0.332c-0.228,0.242-0.384,0.547-0.463,0.902
					c-0.067,0.304-0.118,0.658-0.141,1.071C230.804,401.627,231.441,402.479,231.493,400.745z"/>
				<path style="fill-rule:evenodd;clip-rule:evenodd;fill:#7A5943;" d="M232.336,400.442c0.065-2.161,0.933-2.583,0.933-2.583
					l-0.006-0.015c-0.088,0-0.174-0.005-0.256-0.012c-0.234-0.022-0.468,0.09-0.697,0.332c-0.227,0.242-0.384,0.547-0.463,0.903
					c-0.068,0.303-0.118,0.658-0.141,1.071C231.647,401.324,232.284,402.177,232.336,400.442z"/>
				<path style="fill-rule:evenodd;clip-rule:evenodd;fill:#7A5943;" d="M233.247,400.042c-0.116-2.078,0.742-2.628,0.742-2.628
					l-0.007-0.014c-0.09,0.015-0.179,0.025-0.264,0.031c-0.243,0.018-0.476,0.165-0.689,0.436c-0.214,0.27-0.35,0.588-0.402,0.94
					c-0.044,0.303-0.066,0.65-0.055,1.049C232.611,401.002,233.34,401.71,233.247,400.042z"/>
			</g>
			<path style="fill-rule:evenodd;clip-rule:evenodd;fill:#7A5943;" d="M198.087,413.089c-2.429,2.113-0.381,7.435,2.42,8.504
				c2.911,1.112,5.86,0.501,9.405,2.23c0.129,0.667-0.178,1.419,0.198,1.618c2.03,1.399,2.652,2.306,4.067,2.766
				c1.502,0.488,6.486,0.28,7.206-1.713c0.375-1.073-0.779-5.531-0.779-5.531C213.056,421.779,201.426,411.248,198.087,413.089z"/>
			<path style="fill-rule:evenodd;clip-rule:evenodd;fill:#632A25;" d="M207.525,413.517c-3.436,0.181-6.145-1.493-7.255-1.317
				c-0.885,0.131-2.111,1.042-2.368,2.425c-0.431,2.31,0.784,5.263,2.847,6.292c2.215,1.104,4.961,0.564,8.715,2.078
				c2.064,0.833,4.593,3.628,7.727,3.353c2.851-0.25,3.49-1.084,3.676-2.502c0.372-2.786-0.644-5.425-1.534-7.227
				c-1.143-5.355-7.249,0.465-8.186-3.849C210.872,411.5,208.758,413.068,207.525,413.517z"/>
			<path style="fill-rule:evenodd;clip-rule:evenodd;fill:#351536;" d="M245.497,400.435c-2.336,4.644-10.985,4.839-11.912-1.427
				c-0.541-11.902-9.493-28.593-11.794-37.941c-1.506-19.546-2.354-40.411,2.231-42.348c5.654-1.996,8.718-9.848,14.373-11.845
				c4.349,6.037,4.822,14.783,0.221,19.122c2.812,17.564-2.721,26.362-1.157,32.931
				C242.981,370.001,245.364,397.128,245.497,400.435z"/>
			<path style="fill-rule:evenodd;clip-rule:evenodd;fill:#431E44;" d="M205.516,376.324c-0.371-1.62-1.278-5.293-1.341-7.545
				c-3.897-26.063-1.145-42.556,4.18-57.173c5.443-3.325,17.877,1.707,23.319-1.618c6.726,7.854,5.659,12.478-3.934,22.317
				c0.365,16.371-8.654,25.006-8.302,41.41C216.875,377.258,209.847,380.71,205.516,376.324z"/>
			<g>
				<path style="fill-rule:evenodd;clip-rule:evenodd;fill:#7A5943;" d="M205.854,416.299c0.065-2.161,0.933-2.583,0.933-2.583
					l-0.006-0.015c-0.088,0-0.173-0.005-0.256-0.012c-0.233-0.023-0.468,0.089-0.697,0.332c-0.228,0.242-0.384,0.547-0.463,0.902
					c-0.067,0.303-0.118,0.658-0.141,1.071C205.165,417.181,205.802,418.034,205.854,416.299z"/>
				<path style="fill-rule:evenodd;clip-rule:evenodd;fill:#7A5943;" d="M206.697,415.997c0.065-2.161,0.933-2.583,0.933-2.583
					l-0.006-0.015c-0.088,0-0.173-0.004-0.256-0.012c-0.234-0.023-0.469,0.089-0.696,0.332c-0.228,0.242-0.384,0.547-0.463,0.902
					c-0.068,0.304-0.118,0.658-0.141,1.072C206.007,416.88,206.644,417.732,206.697,415.997z"/>
				<path style="fill-rule:evenodd;clip-rule:evenodd;fill:#7A5943;" d="M207.608,415.596c-0.116-2.077,0.743-2.628,0.743-2.628
					l-0.007-0.013c-0.091,0.014-0.179,0.025-0.264,0.031c-0.242,0.019-0.476,0.166-0.689,0.436c-0.214,0.271-0.35,0.588-0.402,0.941
					c-0.044,0.303-0.066,0.65-0.054,1.049C206.971,416.557,207.701,417.264,207.608,415.596z"/>
			</g>
			<path style="fill-rule:evenodd;clip-rule:evenodd;fill:#431E44;" d="M220.157,418.529c-5.029,3.77-10.28-0.429-12.364-6.802
				c0.963-9.67-0.492-24.484-2.431-37.268c-1.091-7.882,11.181-10.887,14.35-0.491C224.381,384.67,220.131,413.996,220.157,418.529z
				"/>
			<path style="fill-rule:evenodd;clip-rule:evenodd;fill:#D4A35B;" d="M241.559,313.281c-8.069,1.93-25.149-2.221-33.622-7.84
				c0.086,4.329-1.224,7.983-1.459,10.457c-1.793,12.391,29.1,7.034,35.713,0.698C242.098,315.105,241.479,313.87,241.559,313.281z"
				/>
			<path style="fill-rule:evenodd;clip-rule:evenodd;fill:#DB9669;" d="M166.763,256.349c-0.319-1.866-2.033-4.878-2.689-5.906
				c-0.845-1.325-1.521-1.799-2.367-3.123c-0.597,1.016-1.338,1.198,0.364,3.417c0.62,1.918,0.024,8.296,2.624,7.651
				C166.098,257.658,167.333,258.653,166.763,256.349z"/>
			<g>
				<g>
					<path style="fill-rule:evenodd;clip-rule:evenodd;fill:#763B2A;" d="M162.62,274.41l-0.879-46.362
						c-0.026-1.911-2.004-1.988-2.019-0.188l-0.2,46.91C159.518,276.44,162.694,276.311,162.62,274.41z"/>
					<path style="fill-rule:evenodd;clip-rule:evenodd;fill:#B76533;" d="M159.815,274.52l0.226-47.099
						c0.154-0.182,0.354-0.28,0.559-0.293l0.151,48.024C160.384,275.129,159.879,274.969,159.815,274.52z"/>
				</g>
				<path style="fill-rule:evenodd;clip-rule:evenodd;fill:#B2B2B2;" d="M177.795,202.005l-34.435,20.919
					c-0.902,0.548-1.643,1.893-1.643,2.994v21.258c0,1.101,0.741,1.558,1.643,1.01l34.435-20.919
					c0.902-0.548,1.643-1.893,1.643-2.994v-21.258C179.438,201.914,178.697,201.457,177.795,202.005z"/>
				<path style="fill-rule:evenodd;clip-rule:evenodd;fill:#E5E5E5;" d="M178.289,202.376l-34.435,20.919
					c-0.902,0.548-1.643,1.894-1.643,2.994v21.258c0,1.1,0.741,1.558,1.643,1.01l34.435-20.919c0.902-0.548,1.643-1.893,1.643-2.993
					v-21.259C179.932,202.285,179.191,201.828,178.289,202.376z"/>
				<path d="M158.31,222.881c0,1.774-0.417,3.105-1.246,3.994c1.014-0.197,1.52,0.806,1.52,3.003v0.422
					c-0.011,1.663-0.259,3.001-0.749,4.016c-0.486,1.015-1.285,1.846-2.39,2.489l-0.014,0.008v-1.961
					c0.327-0.237,0.564-0.544,0.71-0.918c0.171-0.442,0.257-1.106,0.257-1.995v-1.33c0-0.835-0.069-1.386-0.21-1.653
					c-0.135-0.252-0.386-0.276-0.757-0.074v-1.896c0.28-0.199,0.469-0.444,0.566-0.733c0.116-0.343,0.174-0.942,0.174-1.8v-0.991
					c-0.005-0.633-0.08-1.018-0.226-1.147c-0.109-0.099-0.282-0.1-0.514-0.005v-1.985c1.035-0.595,1.77-0.738,2.207-0.43
					c0.442,0.315,0.666,1.14,0.671,2.48V222.881z M155.431,236.813l-3.136,1.828v-16.489l3.084-1.797l0.053-0.03v1.985
					c-0.074,0.03-0.152,0.069-0.238,0.119l-0.729,0.425v4.705l0.801-0.467c0.059-0.034,0.113-0.069,0.166-0.107v1.896l-0.053,0.029
					l-0.914,0.533v5.987l0.77-0.449c0.069-0.04,0.134-0.082,0.196-0.128V236.813z"/>
				<polygon points="160.357,233.943 160.357,217.454 162.527,216.189 162.527,232.679 				"/>
				<path d="M167.833,227.624c0.289-0.214,0.509-0.488,0.656-0.818c0.18-0.405,0.271-1.008,0.271-1.808l-0.008-8.138
					c0-0.854-0.091-1.411-0.271-1.668c-0.14-0.195-0.355-0.241-0.648-0.136v-1.959l0.101-0.059c1.047-0.61,1.807-0.694,2.279-0.257
					c0.473,0.441,0.707,1.356,0.707,2.751l0.009,7.434c0,1.663-0.238,3.02-0.713,4.071c-0.475,1.051-1.26,1.895-2.354,2.532
					l-0.029,0.017V227.624z M166.906,228.179l0.713-0.416c0.075-0.044,0.146-0.09,0.214-0.14v1.963l-3.095,1.804v-16.489
					l3.095-1.804v1.959c-0.09,0.032-0.185,0.078-0.289,0.139l-0.638,0.372V228.179z"/>
			</g>
			<path style="fill-rule:evenodd;clip-rule:evenodd;fill:#E7C698;" d="M254.302,286.176c0.129,3.822-10.695,7.948-11.908,4.118
				c-4.347-8.668-4.867-4.063-10.816-22.446c-7.919-12.438-3.21-18.155,0.96-19.622
				C246.204,243.516,254.301,286.177,254.302,286.176z"/>
			<path style="fill-rule:evenodd;clip-rule:evenodd;fill:#E7C698;" d="M254.589,287.94c-0.283,8.272,0.828,21.824-3.482,24.899
				c-1.774,1.682-9.248,4.157-9.549-1.433c1.409-7.677-2.706-24.002,0.447-29.791C245.964,281.777,253.001,279.925,254.589,287.94z"
				/>
			<path style="fill-rule:evenodd;clip-rule:evenodd;fill:#F2B387;" d="M210.033,220.784c-0.039,1.722-1.43,3.85-1.884,5.507
				c-0.317,1.159-0.453,1.5-0.054,2.57c0.609,1.645,0.343,3.098-0.137,4.664c-0.575,1.881-0.086,3.937,0.364,5.86
				c0.356,1.516,0.495,3.276,1.796,4.243c3.238,2.414,7.079,1.286,10.524,0.27c3.413-0.993,3.155-6.976,4.344-9.701
				c2.146-4.924,1.11-12.031-4.31-14.497c-2.428-1.096-6.481-1.789-9.066-0.948C210.716,219.043,210.033,220.784,210.033,220.784z"
				/>
			<path style="fill-rule:evenodd;clip-rule:evenodd;fill:#DB9669;" d="M213.567,238.97c0,0-3.153,8.773,2.407,15.409
				c0.387,0.881,0.831-4.122,3.532-4.123c4.291,0,10.922-0.717,10.727-2.11c-0.824-1.899-4.433-7.539-3.287-15.318
				C227.307,230.382,214.326,231.969,213.567,238.97z"/>
			<path style="fill-rule:evenodd;clip-rule:evenodd;fill:#704321;" d="M217.274,215.213c-3.398,0.182-8.1,1.898-8.199,3.469
				c0.393,0.557,0.13,2.895,0.881,3.341c0.287,0.171,0.553,0.583,0.974,1.05c0.015,0.794-0.791,2.398,0.236,3.847
				c1.027,1.447,1.929,4.036,2.171,5.27c0.101,0.51,0.931,0.171,1.195,0.572c1.117,1.697,2.395,1.823,2.721,6.679
				c4.295,5.635,10.138,3.665,10.407,3.119c2.862-5.912,3.6-6.114,4.961-9.671C237.018,221.374,228.679,214.6,217.274,215.213z"/>
			<path style="fill-rule:evenodd;clip-rule:evenodd;fill:#F2B387;" d="M216.573,235.566c-0.817,1.822-1.318,3.523-2.115,3.173
				c-0.8-0.368-1.59-2.165-0.778-3.987c0.823-1.816,1.308-3.578,2.185-3.554C217.516,231.255,217.391,233.738,216.573,235.566z"/>
			<path style="fill-rule:evenodd;clip-rule:evenodd;fill:#EEECF3;" d="M224.648,245.22c-5.361,1.171-12.904,5.023-12.268,8.125
				c0.637,3.101,5.5,4.667,10.861,3.496c5.361-1.171,9.192-4.636,8.556-7.738C231.161,246.002,230.008,244.049,224.648,245.22z"/>
			<path style="fill-rule:evenodd;clip-rule:evenodd;fill:#F0D7B6;" d="M242.52,313.609c-10.934,11.723-38.203,8.957-36.643-0.224
				c1.336-12.426,2.011-18.266,0.818-24.893c-1.927-10.705-3.86-29.922,0.763-32.877c10.642-6.802,21.284-10.597,26.834-7.741
				c4.879,1.923,8.958,11.429,9.782,20.01c0.899,9.359-0.468,21.252-1.312,30.968C242.222,305.08,246.197,311.161,242.52,313.609z"
				/>
			<path style="fill-rule:evenodd;clip-rule:evenodd;fill:#F7E7D3;" d="M180.423,287.318c-3.787,0.529-7.555-8.891-3.873-10.5
				c8.165-5.231,6.053-5.887,19.341-14.637c11.54-9.18,16.079-6.828,17.975-2.834C224.084,279.118,180.423,287.317,180.423,287.318z
				"/>
			<path style="fill-rule:evenodd;clip-rule:evenodd;fill:#F2B387;" d="M164.995,261.884c0.878-0.415,3.782-2.891,2.676-4.377
				c-1.793-1.766-3.437-4.312-3.719-4.594c-0.487-0.49-3.603-3.295-4.549-3.586c-1.235-0.38-1.759,0.716-1.822,1.701
				c-0.804,0.212-1.189,1.434-0.916,2.242c-0.561,0.438-0.824,0.729-0.718,1.981c-0.276,0.466-0.78,0.723-0.566,1.259
				c0.237,1.796,1.822,3.321,3.952,4.741C161.38,262.614,162.671,262.984,164.995,261.884z"/>
			<path style="fill-rule:evenodd;clip-rule:evenodd;fill:#EEECF3;" d="M163.025,266.496c1.133-1.922,4.763-5.506,7.68-5.655
				c-0.994-1.043-2.031-2.423-2.544-3.07c-2.07-2.407-6.651,2.897-6.895,5.225C161.648,264.209,161.936,264.541,163.025,266.496z"/>
			<path style="fill-rule:evenodd;clip-rule:evenodd;fill:#D4A35B;" d="M164.209,269.245c1.258-2.134,5.289-6.115,8.529-6.279
				c-1.105-1.158-2.256-2.691-2.826-3.409c-2.299-2.673-7.386,3.217-7.656,5.802C162.679,266.705,162.999,267.074,164.209,269.245z"
				/>
			<path style="fill-rule:evenodd;clip-rule:evenodd;fill:#F7E7D3;" d="M178.702,286.92c-7.656-3.895-15.792-15.066-16.221-19.827
				c-0.031-1.612,6.579-8.016,8.719-6.713c3.346,2.039,5.608,10.129,13.753,12.998C181.934,275.941,181.848,286.927,178.702,286.92z
				"/>
		</g>
	</g>
</g>
</svg>
